<svg xmlns="http://www.w3.org/2000/svg"  viewBox="0 0 50 50" width="50px" height="50px"><path d="M 36.636719 2.007813 C 33.726563 2.007813 30.816406 3.113281 28.601563 5.328125 L 25.328125 8.601563 C 22.757813 11.171875 21.6875 14.675781 22.101563 18.03125 L 22.09375 18.035156 C 22.34375 20.132813 22.53125 26.035156 20.390625 28.199219 C 20.382813 28.203125 20.378906 28.203125 20.375 28.207031 L 20.375 28.210938 L 14 34.585938 L 15.414063 36 L 21.789063 29.625 L 21.792969 29.625 C 22.921875 28.492188 25.472656 27.921875 27.75 27.800781 C 30.03125 27.679688 31.964844 27.910156 31.964844 27.910156 L 31.964844 27.894531 C 35.320313 28.308594 38.828125 27.242188 41.398438 24.671875 L 44.671875 21.398438 C 49.101563 16.96875 49.101563 9.757813 44.671875 5.328125 C 42.457031 3.113281 39.546875 2.007813 36.636719 2.007813 Z M 15.613281 2.03125 C 14.734375 2.03125 13.859375 2.351563 13.21875 2.992188 C 12.949219 3.261719 12.742188 3.582031 12.578125 3.921875 L 2.601563 8.21875 C 2.238281 8.375 2 8.738281 2 9.136719 C 2 10.429688 2.644531 11.425781 3.039063 11.917969 C 3.199219 14 4.648438 15.046875 5.71875 15.433594 C 6.167969 16.210938 7.265625 17.75 9.074219 17.953125 C 9.5625 18.347656 10.566406 19 11.863281 19 C 12.261719 19 12.625 18.761719 12.78125 18.394531 L 17.066406 8.441406 C 17.414063 8.277344 17.734375 8.054688 18.007813 7.78125 C 18.648438 7.140625 19 6.289063 19 5.386719 C 19 4.480469 18.648438 3.632813 18.007813 2.992188 C 17.367188 2.351563 16.492188 2.03125 15.613281 2.03125 Z M 36.28125 4.011719 L 34 6.292969 L 32.621094 4.914063 C 33.78125 4.363281 35.023438 4.058594 36.28125 4.011719 Z M 37.78125 4.078125 C 38.945313 4.21875 40.082031 4.578125 41.136719 5.15625 L 40 6.292969 Z M 37 4.707031 L 39.292969 7 L 37 9.292969 L 34.707031 7 Z M 31.707031 5.414063 L 33.292969 7 L 31 9.292969 L 29.234375 7.523438 L 30.015625 6.742188 C 30.535156 6.222656 31.109375 5.785156 31.707031 5.414063 Z M 13.625 5.652344 L 15.355469 7.363281 L 13.59375 11.59375 L 9.375 7.46875 Z M 42.003906 5.703125 C 42.445313 6.007813 42.867188 6.351563 43.257813 6.742188 C 43.648438 7.132813 43.992188 7.554688 44.296875 7.992188 L 43 9.292969 L 40.707031 7 Z M 34 7.707031 L 36.292969 10 L 34 12.292969 L 31.707031 10 Z M 40 7.707031 L 42.292969 10 L 40 12.292969 L 37.707031 10 Z M 28.527344 8.234375 L 30.292969 10 L 28 12.292969 L 26.257813 10.550781 C 26.414063 10.367188 26.570313 10.1875 26.742188 10.015625 Z M 44.84375 8.859375 C 45.425781 9.917969 45.785156 11.058594 45.925781 12.21875 L 43.707031 10 Z M 31 10.707031 L 33.292969 13 L 31 15.292969 L 28.707031 13 Z M 37 10.707031 L 39.292969 13 L 37 15.292969 L 34.707031 13 Z M 43 10.707031 L 45.292969 13 L 43 15.292969 L 40.707031 13 Z M 25.640625 11.347656 L 27.292969 13 L 25 15.292969 L 24.246094 14.535156 C 24.5 13.414063 24.964844 12.332031 25.640625 11.347656 Z M 28 13.707031 L 30.292969 16 L 28 18.292969 L 25.707031 16 Z M 34 13.707031 L 36.292969 16 L 34 18.292969 L 31.707031 16 Z M 40 13.707031 L 42.292969 16 L 40 18.292969 L 37.707031 16 Z M 45.988281 13.71875 C 45.941406 14.976563 45.640625 16.222656 45.089844 17.378906 L 43.707031 16 Z M 24.054688 15.761719 L 24.292969 16 L 24.011719 16.28125 C 24.019531 16.109375 24.039063 15.933594 24.054688 15.761719 Z M 25 16.707031 L 27.292969 19 L 25.15625 21.140625 C 24.550781 20.046875 24.1875 18.859375 24.054688 17.652344 Z M 31 16.707031 L 33.292969 19 L 31 21.292969 L 28.707031 19 Z M 37 16.707031 L 39.292969 19 L 37 21.292969 L 34.707031 19 Z M 43 16.707031 L 44.589844 18.296875 C 44.21875 18.894531 43.777344 19.464844 43.257813 19.984375 L 42.472656 20.765625 L 40.707031 19 Z M 28 19.707031 L 30.292969 22 L 27.988281 24.304688 C 27.550781 23.996094 27.132813 23.648438 26.742188 23.257813 C 26.351563 22.867188 26.007813 22.445313 25.703125 22.003906 Z M 34 19.707031 L 36.292969 22 L 34 24.292969 L 31.707031 22 Z M 40 19.707031 L 41.765625 21.472656 L 39.984375 23.257813 C 39.8125 23.429688 39.628906 23.582031 39.445313 23.738281 L 37.707031 22 Z M 31 22.707031 L 33.292969 25 L 32.359375 25.9375 C 32.304688 25.929688 32.253906 25.929688 32.203125 25.921875 L 32.1875 25.921875 C 31.039063 25.777344 29.910156 25.414063 28.863281 24.84375 Z M 37 22.707031 L 38.644531 24.351563 C 37.660156 25.027344 36.582031 25.5 35.460938 25.753906 L 34.707031 25 Z M 24.113281 23.214844 C 24.476563 23.722656 24.871094 24.214844 25.328125 24.671875 C 25.78125 25.125 26.269531 25.519531 26.777344 25.878906 C 25.707031 25.96875 24.59375 26.132813 23.535156 26.449219 C 23.851563 25.40625 24.011719 24.292969 24.113281 23.214844 Z M 34 25.707031 L 34.25 25.953125 C 34.074219 25.972656 33.902344 25.96875 33.730469 25.976563 Z M 11.09375 36.007813 C 10.304688 36.007813 9.53125 36.328125 8.972656 36.886719 L 2.585938 43.273438 C 2.207031 43.648438 2 44.152344 2 44.6875 C 2 45.21875 2.207031 45.722656 2.585938 46.101563 L 3.898438 47.414063 C 4.277344 47.792969 4.777344 48 5.3125 48 C 5.847656 48 6.347656 47.792969 6.726563 47.414063 L 13.113281 41.027344 C 13.671875 40.46875 13.992188 39.695313 13.992188 38.90625 L 13.992188 37.40625 L 12.59375 36.007813 Z"/></svg>