<?xml version="1.0"?><svg xmlns="http://www.w3.org/2000/svg"  viewBox="0 0 50 50" width="50px" height="50px">    <path d="M 19.5 3 C 17.019 3 15 5.019 15 7.5 C 15 9.981 17.019 12 19.5 12 C 21.981 12 24 9.981 24 7.5 C 24 5.019 21.981 3 19.5 3 z M 47.019531 6.9921875 A 1.0001 1.0001 0 0 0 46.396484 7.203125 L 35.216797 15.664062 C 33.531506 14.480507 31.592964 15.103666 30.574219 15.945312 C 30.366219 16.117313 30.237844 16.363813 30.214844 16.632812 C 30.192844 16.900813 30.277125 17.167094 30.453125 17.371094 L 34.154297 21.654297 C 34.351297 21.883297 34.631109 22 34.912109 22 C 35.136109 22 35.362828 21.925484 35.548828 21.771484 C 35.682828 21.661484 36.857281 20.648656 36.988281 19.097656 C 37.029598 18.604112 36.97017 17.91451 36.554688 17.158203 L 47.603516 8.796875 A 1.0001 1.0001 0 0 0 47.019531 6.9921875 z M 14.193359 14.001953 C 11.478359 14.001953 5.5505625 17.883953 5.3515625 18.001953 C 4.7545625 18.300953 4.3076562 18.812313 4.0976562 19.445312 L 2.140625 25.320312 C 1.738625 26.525312 2.2263437 27.863594 3.2773438 28.433594 C 3.6463437 28.632594 4.0587031 28.738281 4.4707031 28.738281 C 5.5487031 28.738281 6.5007969 28.049344 6.8417969 27.027344 L 8.5117188 22.015625 L 12.265625 19.763672 L 11.519531 27.050781 C 11.346531 28.787781 12.018172 30.120188 13.701172 31.367188 C 14.115172 31.676187 20.206063 36.272703 21.289062 36.970703 L 23.085938 45.046875 C 23.336938 46.181875 24.362437 47.005859 25.523438 47.005859 C 25.677437 47.005859 25.831328 46.990891 25.986328 46.962891 C 26.621328 46.843891 27.176781 46.465391 27.550781 45.900391 C 27.952781 45.291391 28.0935 44.539891 27.9375 43.837891 L 25.806641 34.240234 C 25.785641 34.149234 25.739781 34.066 25.675781 34 L 20.257812 27.972656 L 21.478516 18.949219 C 21.725516 16.480219 19.918594 14.272484 17.433594 14.021484 C 17.339594 14.007484 17.144 13.982953 17 14.001953 L 14.193359 14.001953 z M 23.478516 17.994141 C 23.502516 18.351141 23.50475 18.713078 23.46875 19.080078 L 23.466797 19.115234 L 23.460938 19.150391 L 22.787109 24.115234 L 24.232422 25.228516 C 24.704422 25.701516 25.332 25.960938 26 25.960938 C 26.668 25.960938 27.29675 25.701437 27.71875 25.273438 L 32.138672 22.378906 L 28.9375 18.675781 C 28.9305 18.667781 28.926922 18.657438 28.919922 18.648438 L 26.148438 20.503906 L 23.478516 17.994141 z M 10.275391 30.46875 L 2.4785156 42.964844 C 2.0855156 43.505844 1.92625 44.167172 2.03125 44.826172 C 2.13525 45.486172 2.49125 46.063078 3.03125 46.455078 C 3.46125 46.768078 3.9808594 46.933594 4.5058594 46.933594 C 4.7518594 46.933594 4.9992813 46.898219 5.2382812 46.824219 C 5.7582812 46.664219 6.2023906 46.344391 6.5253906 45.900391 L 14.798828 34.623047 C 14.166828 34.150047 13.542844 33.683047 12.964844 33.248047 L 12.511719 32.908203 C 11.510719 32.166203 10.777391 31.35375 10.275391 30.46875 z"/></svg>