<svg xmlns="http://www.w3.org/2000/svg"  viewBox="0 0 50 50" width="50px" height="50px"><path d="M 12 2 L 5.0722656 4.96875 L 5 4.96875 L 5 5 L 5 8 L 5 10.363281 C 4.7189663 10.205754 4.399871 10.107422 4.0546875 10.107422 C 2.9796875 10.107422 2.1074219 10.979688 2.1074219 12.054688 C 2.1074219 13.129687 2.9796875 14 4.0546875 14 C 5.1115269 14 5.9653963 13.157298 5.9941406 12.107422 L 6 12.107422 L 6 7.5722656 L 11 5.4296875 L 11 8.3027344 A 1.946 1.946 0 0 0 10.054688 8.0546875 A 1.946 1.946 0 0 0 10.054688 11.945312 A 1.946 1.946 0 0 0 11.998047 10 L 12 10 L 12 5 L 12 2 z M 42 2 L 42 5 L 42 8.3632812 C 41.718966 8.2057536 41.399871 8.1074219 41.054688 8.1074219 C 39.979687 8.1074219 39.107422 8.9796875 39.107422 10.054688 C 39.107422 11.129687 39.979687 12 41.054688 12 C 42.129688 12 43 11.129687 43 10.054688 C 43 10.035955 42.994666 10.018606 42.994141 10 L 43 10 L 43 5.1992188 L 47 6 L 47 3 L 42 2 z M 25 3.0019531 C 18.391743 3.0019531 13 8.3936958 13 15.001953 L 13 15.779297 C 12.390667 16.328373 12 17.115084 12 18 L 12 22 C 12 23.657 13.343 25 15 25 L 17.089844 25 C 17.516211 27.419838 19.381465 28.947333 20 29.300781 L 20 32.5 C 18.4 37.2 5.5 35.9 5 45 L 5 48 L 45 48 L 45 45 C 44.5 35.9 31.8 37.2 30 32.5 L 30 29.300781 C 30.618535 28.947333 32.483789 27.419838 32.910156 25 L 35 25 C 36.657 25 38 23.657 38 22 L 38 18 C 38 17.115084 37.609333 16.328373 37 15.779297 L 37 15.001953 C 37 8.3936958 31.608257 3.0019531 25 3.0019531 z M 25 5.0019531 C 30.523086 5.0019531 34.998935 9.477164 35 15 L 33 15 L 33 14.996094 C 33 10.578094 29.418 6.9960938 25 6.9960938 C 20.582 6.9960938 17 10.578094 17 14.996094 L 17 15 L 15 15 C 15.001065 9.477164 19.476914 5.0019531 25 5.0019531 z"/></svg>